# xmcd
#
# Track frame offsets:
#	150
#	15503
#	30023
#	42423
#	57318
#	70321
#	83416
#	100109
#	116347
#	131957
#	149330
#	163615
#	177645
#	192860
#	208378
#	222101
#	236169
#	247449
#	264704
#	279847
#	296195
#
# Disc length: 4150 seconds
#
# Revision: 1
# Processed by: cddbd v1.5.2PL0 Copyright (c) Steve Scherf et al.
# Submitted via: audiograbber 1.83.01
#
DISCID=42103415
DTITLE=Various Artist - Halland's Country Music Hits Volume 1
DYEAR=1900
DGENRE=
TTITLE0=Sawyer Brown - Cafe On The Corner
TTITLE1=Sawyer Brown - Some Girls Do
TTITLE2=Sawyer Brown - Step That Step
TTITLE3=Sawyer Brown - Thank God For You
TTITLE4=Sawyer Brown - The Dirt Road
TTITLE5=Sawyer Brown - The Race Is On
TTITLE6=Sawyer Brown - The Walk
TTITLE7=Dan Seals - Bop
TTITLE8=Dan Seals - Good Times
TTITLE9=Dan Seals - Love On Arrival
TTITLE10=Dan Seals - One Friend
TTITLE11=Ricky Van Shelton - Backroads
TTITLE12=Ricky Van Shelton - Crime Of Passion
TTITLE13=Ricky Van Shelton - I Am A Simple Man
TTITLE14=Ricky Van Shelton - I Meant Every Word He Said
TTITLE15=Ricky Van Shelton - I'll Leave This World Loving You
TTITLE16=Ricky Van Shelton - I've Cried My Last Tear For You
TTITLE17=Ricky Van Shelton - Keep It Between The Lines
TTITLE18=Ricky Van Shelton - Life Turned Her That Way
TTITLE19=Ricky Van Shelton - Life's Little Ups And Downs
TTITLE20=Ricky Van Shelton - Wild Man
EXTD=
EXTT0=
EXTT1=
EXTT2=
EXTT3=
EXTT4=
EXTT5=
EXTT6=
EXTT7=
EXTT8=
EXTT9=
EXTT10=
EXTT11=
EXTT12=
EXTT13=
EXTT14=
EXTT15=
EXTT16=
EXTT17=
EXTT18=
EXTT19=
EXTT20=
PLAYORDER=
